<svg width="289" height="36" viewBox="0 0 289 36" fill="none" xmlns="http://www.w3.org/2000/svg">
<path d="M48.0236 11.5511H51.6856V24.3103H63.5179V27.2673H48.0236V11.5511Z" fill="black"/>
<path d="M67.0663 11.5511H83.2046V14.2313H70.7283V17.7294H78.002V20.4096H70.7283V24.3103H83.3562V27.2673H67.0663V11.5511V11.5511Z" fill="black"/>
<path d="M88.281 11.5511H91.2485L98.6737 21.0513L105.947 11.5511H108.877V27.2673H105.48V17.5532C105.48 17.2513 105.505 16.6976 105.606 15.8797C105.265 16.5844 104.962 17.1632 104.685 17.5281L98.7494 25.3799H98.017L92.082 17.4903C91.7158 16.9996 91.3748 16.4837 91.1349 15.8797C91.198 16.5214 91.2233 17.0373 91.2233 17.5532V27.2673H88.2557V11.5511H88.281Z" fill="black"/>
<path d="M118.348 11.5511H129.965C132.933 11.5511 133.88 12.3061 133.88 15.2631V23.5428C133.88 26.4998 132.933 27.2547 129.965 27.2547H118.348C115.38 27.2547 114.433 26.4998 114.433 23.5428V15.2631C114.433 12.3061 115.38 11.5511 118.348 11.5511ZM130.205 24.3103V14.3572H118.095V24.3103H130.205Z" fill="black"/>
<path d="M139.739 11.5511H142.24L153.339 20.8122C153.983 21.3281 154.59 21.8818 155.145 22.5235C155.057 21.2149 154.994 20.2963 154.994 19.8182V11.5637H158.29V27.2799H155.789L144.21 17.5658C143.755 17.1758 143.326 16.7731 142.896 16.2824C143.023 17.5029 143.048 18.3208 143.048 18.7864V27.2799H139.752V11.5511H139.739Z" fill="black"/>
<path d="M164.49 11.5511H178.002C180.413 11.5511 181.55 12.4068 181.55 14.5962V16.5089C181.55 18.0314 180.578 18.95 178.835 19.1639C180.666 19.4029 181.676 20.4977 181.676 22.1838V24.1971C181.676 26.2984 180.123 27.2673 177.029 27.2673H164.502V11.5511H164.49ZM168.101 14.1055V17.8552H176.474C177.61 17.8552 178.153 17.6413 178.153 16.7228V15.2254C178.153 14.3068 177.597 14.0929 176.474 14.0929H168.101V14.1055ZM168.101 20.4473V24.4362H176.474C177.724 24.4362 178.241 24.1971 178.241 23.0394V21.8566C178.241 20.699 177.724 20.4599 176.474 20.4599H168.101V20.4473Z" fill="black"/>
<path d="M190.591 24.3103H201.047V11.5511H204.709V23.5553C204.709 26.5123 203.762 27.2673 200.795 27.2673H190.831C187.864 27.2673 186.917 26.5123 186.917 23.5553V11.5511H190.579V24.3103H190.591Z" fill="black"/>
<path d="M218.284 27.2673H214.622V14.3446H207.374V11.5386H225.558V14.3446H218.284V27.2548V27.2673Z" fill="black"/>
<path d="M235.547 27.2673H231.884V14.3446H224.636V11.5386H242.82V14.3446H235.547V27.2548V27.2673Z" fill="black"/>
<path d="M249.046 11.5511H260.663C263.631 11.5511 264.578 12.3061 264.578 15.2631V23.5428C264.578 26.4998 263.631 27.2547 260.663 27.2547H249.046C246.078 27.2547 245.131 26.4998 245.131 23.5428V15.2631C245.131 12.3061 246.078 11.5511 249.046 11.5511ZM260.903 24.3103V14.3572H248.806V24.3103H260.903Z" fill="black"/>
<path d="M270.45 11.5511H272.95L284.05 20.8122C284.694 21.3281 285.3 21.8818 285.856 22.5235C285.767 21.2149 285.704 20.2963 285.704 19.8182V11.5637H289V27.2799H286.5L274.92 17.5658C274.465 17.1758 274.036 16.7731 273.607 16.2824C273.733 17.5029 273.758 18.3208 273.758 18.7864V27.2799H270.462V11.5511H270.45Z" fill="black"/>
<path d="M18.0578 0C28.0211 0 36.1155 8.07829 36.1155 17.9937V35.9874H18.0578C8.10705 36 0 27.9217 0 17.9937V0H18.0578ZM18.0578 33.6973C18.6008 33.6973 19.1311 33.6721 19.6489 33.6218C19.7246 33.6218 19.8004 33.5966 19.8762 33.5841C20.3308 33.5337 20.7727 33.4708 21.2147 33.3827H21.2526C27.3771 32.1118 32.2009 27.2926 33.4763 21.2024V21.1646C33.5773 20.7242 33.6405 20.2838 33.691 19.8308C33.691 19.7553 33.7162 19.6798 33.7289 19.6043C33.7794 19.0758 33.8046 18.5474 33.8046 18.0189C33.8046 9.36176 26.7331 2.31527 18.0451 2.31527H2.29826V17.9937C2.29826 26.6508 9.36983 33.6973 18.0578 33.6973Z" fill="#D7DF00"/>
<path d="M25.9627 17.9937H18.0577V25.8706H25.9627V17.9937Z" fill="#D7DF00"/>
<path d="M18.0578 10.1167H10.1528V17.9937H18.0578V10.1167Z" fill="#D7DF00"/>
</svg>
